<svg width="20" height="21" viewBox="0 0 20 21" fill="none" xmlns="http://www.w3.org/2000/svg">
<path d="M10.21 15.7155C10.7374 15.6795 11.2604 15.5952 11.7725 15.4639C12.405 15.654 13.0725 15.697 13.7242 15.5897C13.7502 15.5865 13.7763 15.5846 13.8025 15.5839C14.035 15.5839 14.34 15.7172 14.785 15.998V15.5364C14.7852 15.4559 14.8069 15.377 14.848 15.3079C14.889 15.2387 14.9478 15.1818 15.0183 15.143C15.2122 15.0336 15.3914 14.9105 15.5558 14.7739C16.2042 14.2322 16.57 13.5089 16.57 12.7439C16.57 12.4914 16.53 12.2397 16.4508 11.9997C16.6475 11.638 16.8042 11.2605 16.9208 10.8672C17.2958 11.4214 17.4975 12.0755 17.5 12.7439C17.5 13.7839 17.01 14.7539 16.1608 15.463C16.0186 15.5814 15.87 15.6903 15.715 15.7897V16.8714C15.715 17.243 15.28 17.4572 14.9733 17.2355C14.6828 17.0217 14.3824 16.8215 14.0733 16.6355C13.984 16.584 13.8916 16.5381 13.7967 16.498C13.5387 16.5362 13.2783 16.5554 13.0175 16.5555C11.9592 16.5555 10.9808 16.2414 10.21 15.7155ZM4.60917 13.553C3.2725 12.4339 2.5 10.908 2.5 9.27304C2.5 5.93304 5.69333 3.26221 9.5925 3.26221C13.4925 3.26221 16.6867 5.93221 16.6867 9.27304C16.6867 12.613 13.4925 15.283 9.5925 15.283C9.15417 15.283 8.72222 15.2497 8.29667 15.183C8.11333 15.2255 7.37833 15.6564 6.32 16.4189C5.93667 16.6955 5.39333 16.4289 5.39333 15.963V14.1189C5.11885 13.9492 4.85705 13.7598 4.61 13.5522M8.3225 14.0455C8.35472 14.0455 8.38722 14.048 8.42 14.053C8.80333 14.1164 9.19417 14.1483 9.5925 14.1489C12.8867 14.1489 15.5225 11.9447 15.5225 9.27221C15.5225 6.60054 12.8867 4.39637 9.59333 4.39637C6.3 4.39637 3.6625 6.60221 3.6625 9.27304C3.6625 10.5647 4.27917 11.7814 5.3675 12.6922C5.64194 12.9211 5.94083 13.1267 6.26417 13.3089C6.35188 13.3576 6.42509 13.4286 6.47633 13.5149C6.52758 13.6011 6.55501 13.6994 6.55583 13.7997V14.863C7.39333 14.3089 7.94417 14.0455 8.3225 14.0455Z" fill="white"/>
<path d="M6.71832 10.2939C6.96696 10.2939 7.20542 10.1952 7.38124 10.0194C7.55705 9.84354 7.65582 9.60509 7.65582 9.35645C7.65582 9.1078 7.55705 8.86935 7.38124 8.69353C7.20542 8.51772 6.96696 8.41895 6.71832 8.41895C6.46968 8.41895 6.23123 8.51772 6.05541 8.69353C5.87959 8.86935 5.78082 9.1078 5.78082 9.35645C5.78082 9.60509 5.87959 9.84354 6.05541 10.0194C6.23123 10.1952 6.46968 10.2939 6.71832 10.2939ZM9.76582 10.2939C10.0145 10.2939 10.2529 10.1952 10.4287 10.0194C10.6046 9.84354 10.7033 9.60509 10.7033 9.35645C10.7033 9.1078 10.6046 8.86935 10.4287 8.69353C10.2529 8.51772 10.0145 8.41895 9.76582 8.41895C9.51718 8.41895 9.27873 8.51772 9.10291 8.69353C8.92709 8.86935 8.82832 9.1078 8.82832 9.35645C8.82832 9.60509 8.92709 9.84354 9.10291 10.0194C9.27873 10.1952 9.51718 10.2939 9.76582 10.2939ZM12.8125 10.2939C13.0611 10.2939 13.2996 10.1952 13.4754 10.0194C13.6512 9.84354 13.75 9.60509 13.75 9.35645C13.75 9.1078 13.6512 8.86935 13.4754 8.69353C13.2996 8.51772 13.0611 8.41895 12.8125 8.41895C12.5638 8.41895 12.3254 8.51772 12.1496 8.69353C11.9738 8.86935 11.875 9.1078 11.875 9.35645C11.875 9.60509 11.9738 9.84354 12.1496 10.0194C12.3254 10.1952 12.5638 10.2939 12.8125 10.2939Z" fill="white"/>
</svg>
